<svg viewBox="0 0 530 530" fill="none" xmlns="http://www.w3.org/2000/svg">
    <path fill-rule="evenodd"
          clip-rule="evenodd"
          d="m98.238 42.43 62.709-16.998 6.38.08 62.381 18.597 5.331 3.392L264.797 81.1l32.119-35.31 5.377-3.323 59.89-16.998 6.375.003 65.31 18.598 5.625 3.614 27.027 31.844 49.521 37.262-13.955 17.98-50.539-38.028-1.841-1.734-25.597-30.16-58.748-16.73-53.529 15.193-38.59 42.423-17.22-.112-36.134-40.795-56.043-16.708-56.126 15.213-42.005 48.155-8.343 37.83 11.227 72.335 60.987 80.698 82.569 51.3 1.557 1.161 50.971 45.188 50.97-45.188 1.557-1.16 82.567-51.301 49.529-65.54 2.98-2.747 50.539-32.175 12.479 19.004-48.798 31.066-49.568 65.591-3.087 2.815-83.548 51.91-57.931 51.36h-15.378l-57.932-51.36-83.55-51.91-3.086-2.815L48.452 232.9l-2.14-5.045-11.98-77.187.13-4.111 9.41-42.672 2.512-4.97L92.57 45.966l5.668-3.537Z"
          fill="#ff005c"/>

    <path fill-rule="evenodd"
          clip-rule="evenodd"
          d="m480.898 322.625-5.661 1.426-52.228 36.273 9.785-10.894-1.713-12.178-.282-.178-2.095-.947-32.511-9.528-6.943 1.054-114.398 76.248-2.943 3.504-7.05 16.137-6.768-15.489-2.943-3.504-114.398-76.248-6.943-1.054-32.511 9.528-2.095.946-.282.179-1.713 12.178 9.785 10.893-52.228-36.272-5.66-1.426-38.205 4.285-4.825 13.82L139.57 470.511l3.423 1.985 109.95 32.072 9.554-3.907 2.681-4.877 2.325 4.23 9.554 3.906 109.95-32.072 3.423-1.985L523.927 340.73l-4.825-13.82-38.204-4.285ZM255.915 444.01l-6.925 15.851.321 7.057 6.525 11.871-4.613 8.393-101.605-29.638L29.882 341.723l17.972-2.016 106.318 73.838 14.069 16.789 12.667-10.309-14.77-17.627-.183-.211-47.977-53.41 16.787-4.92 109.188 72.775 11.962 27.378Zm18.605 34.779 4.257 7.745 101.605-29.637 119.736-115.822-17.972-2.015-106.318 73.837-14.069 16.789-12.667-10.309 14.77-17.626.184-.211 47.976-53.411-16.787-4.92-109.188 72.775-12.245 28.026 7.209 16.499-.322 7.057-6.169 11.223Z"
          fill="black"/>
</svg>

